<svg width="519" height="172" viewBox="0 0 519 172" fill="none" xmlns="http://www.w3.org/2000/svg">
<rect width="519" height="172" rx="86" fill="#E9E9E9"/>
<path d="M156.917 89.4844C162.021 89.4844 165.81 90.6302 168.284 92.9219C170.758 95.2135 171.995 98.8724 171.995 103.898V133H167.269L166.019 126.672H165.706C164.508 128.234 163.258 129.549 161.956 130.617C160.654 131.659 159.144 132.453 157.425 133C155.732 133.521 153.649 133.781 151.175 133.781C148.571 133.781 146.253 133.326 144.222 132.414C142.217 131.503 140.628 130.122 139.456 128.273C138.31 126.424 137.738 124.081 137.738 121.242C137.738 116.971 139.43 113.69 142.816 111.398C146.201 109.107 151.357 107.857 158.284 107.648L165.667 107.336V104.719C165.667 101.021 164.873 98.4297 163.284 96.9453C161.696 95.4609 159.456 94.7188 156.566 94.7188C154.326 94.7188 152.191 95.0443 150.159 95.6953C148.128 96.3464 146.201 97.1146 144.378 98L142.386 93.0781C144.313 92.0885 146.527 91.2422 149.027 90.5391C151.527 89.8359 154.157 89.4844 156.917 89.4844ZM165.589 111.906L159.066 112.18C153.727 112.388 149.964 113.26 147.777 114.797C145.589 116.333 144.495 118.508 144.495 121.32C144.495 123.768 145.238 125.578 146.722 126.75C148.206 127.922 150.172 128.508 152.62 128.508C156.422 128.508 159.534 127.453 161.956 125.344C164.378 123.234 165.589 120.07 165.589 115.852V111.906ZM213.45 121.281C213.45 124.016 212.76 126.32 211.38 128.195C210.026 130.044 208.072 131.438 205.52 132.375C202.994 133.312 199.973 133.781 196.458 133.781C193.463 133.781 190.872 133.547 188.684 133.078C186.497 132.609 184.583 131.945 182.942 131.086V125.109C184.687 125.969 186.77 126.75 189.192 127.453C191.614 128.156 194.088 128.508 196.614 128.508C200.312 128.508 202.994 127.909 204.661 126.711C206.328 125.513 207.161 123.885 207.161 121.828C207.161 120.656 206.822 119.628 206.145 118.742C205.494 117.831 204.388 116.958 202.825 116.125C201.263 115.266 199.101 114.328 196.341 113.312C193.606 112.271 191.236 111.242 189.231 110.227C187.252 109.185 185.716 107.922 184.622 106.438C183.554 104.953 183.02 103.026 183.02 100.656C183.02 97.0365 184.479 94.263 187.395 92.3359C190.338 90.3828 194.192 89.4062 198.958 89.4062C201.536 89.4062 203.945 89.6667 206.184 90.1875C208.45 90.6823 210.559 91.3594 212.513 92.2188L210.325 97.4141C208.554 96.6589 206.666 96.0208 204.661 95.5C202.656 94.9792 200.611 94.7188 198.528 94.7188C195.533 94.7188 193.229 95.2135 191.614 96.2031C190.026 97.1927 189.231 98.5469 189.231 100.266C189.231 101.594 189.596 102.688 190.325 103.547C191.08 104.406 192.278 105.214 193.919 105.969C195.559 106.724 197.721 107.609 200.403 108.625C203.085 109.615 205.403 110.643 207.356 111.711C209.309 112.753 210.807 114.029 211.848 115.539C212.916 117.023 213.45 118.938 213.45 121.281ZM251.975 121.281C251.975 124.016 251.285 126.32 249.905 128.195C248.551 130.044 246.597 131.438 244.045 132.375C241.519 133.312 238.498 133.781 234.983 133.781C231.988 133.781 229.397 133.547 227.209 133.078C225.022 132.609 223.108 131.945 221.467 131.086V125.109C223.212 125.969 225.295 126.75 227.717 127.453C230.139 128.156 232.613 128.508 235.139 128.508C238.837 128.508 241.519 127.909 243.186 126.711C244.853 125.513 245.686 123.885 245.686 121.828C245.686 120.656 245.347 119.628 244.67 118.742C244.019 117.831 242.913 116.958 241.35 116.125C239.788 115.266 237.626 114.328 234.866 113.312C232.131 112.271 229.761 111.242 227.756 110.227C225.777 109.185 224.241 107.922 223.147 106.438C222.079 104.953 221.545 103.026 221.545 100.656C221.545 97.0365 223.004 94.263 225.92 92.3359C228.863 90.3828 232.717 89.4062 237.483 89.4062C240.061 89.4062 242.47 89.6667 244.709 90.1875C246.975 90.6823 249.084 91.3594 251.038 92.2188L248.85 97.4141C247.079 96.6589 245.191 96.0208 243.186 95.5C241.181 94.9792 239.136 94.7188 237.053 94.7188C234.058 94.7188 231.754 95.2135 230.139 96.2031C228.551 97.1927 227.756 98.5469 227.756 100.266C227.756 101.594 228.121 102.688 228.85 103.547C229.605 104.406 230.803 105.214 232.444 105.969C234.084 106.724 236.246 107.609 238.928 108.625C241.61 109.615 243.928 110.643 245.881 111.711C247.834 112.753 249.332 114.029 250.373 115.539C251.441 117.023 251.975 118.938 251.975 121.281ZM297.648 132.922L290.031 108C289.693 106.932 289.367 105.891 289.055 104.875C288.768 103.833 288.495 102.844 288.234 101.906C288 100.943 287.779 100.057 287.57 99.25C287.388 98.4167 287.232 97.7005 287.102 97.1016H286.828C286.724 97.7005 286.581 98.4167 286.398 99.25C286.216 100.057 285.995 100.943 285.734 101.906C285.5 102.87 285.24 103.885 284.953 104.953C284.667 105.995 284.341 107.049 283.977 108.117L276.008 132.922H268.703L256.906 90.1094H263.625L269.797 113.742C270.214 115.305 270.604 116.854 270.969 118.391C271.359 119.901 271.685 121.333 271.945 122.688C272.232 124.016 272.44 125.174 272.57 126.164H272.883C273.039 125.513 273.208 124.732 273.391 123.82C273.599 122.909 273.82 121.945 274.055 120.93C274.315 119.888 274.589 118.859 274.875 117.844C275.161 116.802 275.448 115.826 275.734 114.914L283.625 90.1094H290.617L298.234 114.875C298.625 116.125 299.003 117.427 299.367 118.781C299.758 120.135 300.109 121.451 300.422 122.727C300.734 123.977 300.956 125.096 301.086 126.086H301.398C301.503 125.201 301.698 124.107 301.984 122.805C302.271 121.503 302.596 120.07 302.961 118.508C303.352 116.945 303.755 115.357 304.172 113.742L310.422 90.1094H317.023L305.188 132.922H297.648ZM362.15 111.516C362.15 115.031 361.694 118.169 360.783 120.93C359.871 123.69 358.556 126.021 356.838 127.922C355.119 129.823 353.035 131.281 350.588 132.297C348.166 133.286 345.418 133.781 342.345 133.781C339.481 133.781 336.851 133.286 334.455 132.297C332.085 131.281 330.028 129.823 328.283 127.922C326.564 126.021 325.223 123.69 324.259 120.93C323.322 118.169 322.853 115.031 322.853 111.516C322.853 106.828 323.647 102.844 325.236 99.5625C326.824 96.2552 329.09 93.7422 332.033 92.0234C335.002 90.2786 338.53 89.4062 342.619 89.4062C346.525 89.4062 349.936 90.2786 352.853 92.0234C355.796 93.7682 358.074 96.2943 359.689 99.6016C361.33 102.883 362.15 106.854 362.15 111.516ZM329.572 111.516C329.572 114.953 330.028 117.935 330.939 120.461C331.851 122.987 333.257 124.94 335.158 126.32C337.059 127.701 339.507 128.391 342.502 128.391C345.47 128.391 347.905 127.701 349.806 126.32C351.733 124.94 353.153 122.987 354.064 120.461C354.976 117.935 355.431 114.953 355.431 111.516C355.431 108.104 354.976 105.161 354.064 102.688C353.153 100.188 351.746 98.2604 349.845 96.9062C347.944 95.5521 345.483 94.875 342.463 94.875C338.009 94.875 334.741 96.3464 332.658 99.2891C330.601 102.232 329.572 106.307 329.572 111.516ZM393.214 89.4062C394.073 89.4062 394.972 89.4583 395.909 89.5625C396.847 89.6406 397.68 89.7578 398.409 89.9141L397.589 95.9297C396.886 95.7474 396.105 95.6042 395.245 95.5C394.386 95.3958 393.579 95.3438 392.823 95.3438C391.105 95.3438 389.477 95.6953 387.941 96.3984C386.43 97.0755 385.102 98.0651 383.956 99.3672C382.81 100.643 381.912 102.193 381.261 104.016C380.61 105.812 380.284 107.818 380.284 110.031V133H373.761V90.1875H379.152L379.855 98.0781H380.128C381.014 96.4896 382.081 95.0443 383.331 93.7422C384.581 92.4141 386.027 91.3594 387.667 90.5781C389.334 89.7969 391.183 89.4062 393.214 89.4062Z" fill="black"/>
<path d="M417.091 111.086L402.286 90.1875H409.708L420.997 106.672L432.247 90.1875H439.591L424.786 111.086L440.411 133H432.989L420.997 115.539L408.927 133H401.583L417.091 111.086Z" fill="#F04137"/>
<path d="M77 57L77 47.5C77 42.2533 81.2533 38 86.5 38L131 38L131 57L77 57Z" fill="black"/>
<rect x="77" y="95" width="19" height="46" transform="rotate(-90 77 95)" fill="black"/>
<path d="M86.5 133C81.2533 133 77 128.747 77 123.5L77 114L96 114L96 133L86.5 133Z" fill="black"/>
<path d="M134 85.5C134 90.7467 129.747 95 124.5 95L115 95L115 38L134 38L134 85.5Z" fill="black"/>
</svg>
