<svg width="365" height="96" viewBox="0 0 365 96" fill="none" xmlns="http://www.w3.org/2000/svg">
<path d="M79.9172 51.4844C85.0214 51.4844 88.8104 52.6302 91.2844 54.9219C93.7583 57.2135 94.9953 60.8724 94.9953 65.8984V95H90.2688L89.0188 88.6719H88.7063C87.5083 90.2344 86.2583 91.5495 84.9563 92.6172C83.6542 93.6589 82.1438 94.4531 80.425 95C78.7323 95.5208 76.649 95.7812 74.175 95.7812C71.5708 95.7812 69.2531 95.3255 67.2219 94.4141C65.2167 93.5026 63.6281 92.1224 62.4563 90.2734C61.3104 88.4245 60.7375 86.0807 60.7375 83.2422C60.7375 78.9714 62.4302 75.6901 65.8156 73.3984C69.201 71.1068 74.3573 69.8568 81.2844 69.6484L88.6672 69.3359V66.7188C88.6672 63.0208 87.8729 60.4297 86.2844 58.9453C84.6958 57.4609 82.4563 56.7188 79.5656 56.7188C77.326 56.7188 75.1906 57.0443 73.1594 57.6953C71.1281 58.3464 69.201 59.1146 67.3781 60L65.3859 55.0781C67.313 54.0885 69.5266 53.2422 72.0266 52.5391C74.5266 51.8359 77.1568 51.4844 79.9172 51.4844ZM88.5891 73.9062L82.0656 74.1797C76.7271 74.388 72.9641 75.2604 70.7766 76.7969C68.5891 78.3333 67.4953 80.5078 67.4953 83.3203C67.4953 85.7682 68.2375 87.5781 69.7219 88.75C71.2063 89.9219 73.1724 90.5078 75.6203 90.5078C79.4224 90.5078 82.5344 89.4531 84.9563 87.3438C87.3781 85.2344 88.5891 82.0703 88.5891 77.8516V73.9062ZM136.45 83.2812C136.45 86.0156 135.76 88.3203 134.38 90.1953C133.026 92.0443 131.072 93.4375 128.52 94.375C125.994 95.3125 122.973 95.7812 119.458 95.7812C116.463 95.7812 113.872 95.5469 111.684 95.0781C109.497 94.6094 107.583 93.9453 105.942 93.0859V87.1094C107.687 87.9688 109.77 88.75 112.192 89.4531C114.614 90.1562 117.088 90.5078 119.614 90.5078C123.312 90.5078 125.994 89.9089 127.661 88.7109C129.328 87.513 130.161 85.8854 130.161 83.8281C130.161 82.6562 129.822 81.6276 129.145 80.7422C128.494 79.8307 127.388 78.9583 125.825 78.125C124.263 77.2656 122.101 76.3281 119.341 75.3125C116.606 74.2708 114.236 73.2422 112.231 72.2266C110.252 71.1849 108.716 69.9219 107.622 68.4375C106.554 66.9531 106.02 65.026 106.02 62.6562C106.02 59.0365 107.479 56.263 110.395 54.3359C113.338 52.3828 117.192 51.4062 121.958 51.4062C124.536 51.4062 126.945 51.6667 129.184 52.1875C131.45 52.6823 133.559 53.3594 135.513 54.2188L133.325 59.4141C131.554 58.6589 129.666 58.0208 127.661 57.5C125.656 56.9792 123.611 56.7188 121.528 56.7188C118.533 56.7188 116.229 57.2135 114.614 58.2031C113.026 59.1927 112.231 60.5469 112.231 62.2656C112.231 63.5938 112.596 64.6875 113.325 65.5469C114.08 66.4062 115.278 67.2135 116.919 67.9688C118.559 68.724 120.721 69.6094 123.403 70.625C126.085 71.6146 128.403 72.6432 130.356 73.7109C132.309 74.7526 133.807 76.0286 134.848 77.5391C135.916 79.0234 136.45 80.9375 136.45 83.2812ZM174.975 83.2812C174.975 86.0156 174.285 88.3203 172.905 90.1953C171.551 92.0443 169.597 93.4375 167.045 94.375C164.519 95.3125 161.498 95.7812 157.983 95.7812C154.988 95.7812 152.397 95.5469 150.209 95.0781C148.022 94.6094 146.108 93.9453 144.467 93.0859V87.1094C146.212 87.9688 148.295 88.75 150.717 89.4531C153.139 90.1562 155.613 90.5078 158.139 90.5078C161.837 90.5078 164.519 89.9089 166.186 88.7109C167.853 87.513 168.686 85.8854 168.686 83.8281C168.686 82.6562 168.347 81.6276 167.67 80.7422C167.019 79.8307 165.913 78.9583 164.35 78.125C162.788 77.2656 160.626 76.3281 157.866 75.3125C155.131 74.2708 152.761 73.2422 150.756 72.2266C148.777 71.1849 147.241 69.9219 146.147 68.4375C145.079 66.9531 144.545 65.026 144.545 62.6562C144.545 59.0365 146.004 56.263 148.92 54.3359C151.863 52.3828 155.717 51.4062 160.483 51.4062C163.061 51.4062 165.47 51.6667 167.709 52.1875C169.975 52.6823 172.084 53.3594 174.038 54.2188L171.85 59.4141C170.079 58.6589 168.191 58.0208 166.186 57.5C164.181 56.9792 162.136 56.7188 160.053 56.7188C157.058 56.7188 154.754 57.2135 153.139 58.2031C151.551 59.1927 150.756 60.5469 150.756 62.2656C150.756 63.5938 151.121 64.6875 151.85 65.5469C152.605 66.4062 153.803 67.2135 155.444 67.9688C157.084 68.724 159.246 69.6094 161.928 70.625C164.61 71.6146 166.928 72.6432 168.881 73.7109C170.834 74.7526 172.332 76.0286 173.373 77.5391C174.441 79.0234 174.975 80.9375 174.975 83.2812ZM220.648 94.9219L213.031 70C212.693 68.9323 212.367 67.8906 212.055 66.875C211.768 65.8333 211.495 64.8438 211.234 63.9062C211 62.9427 210.779 62.0573 210.57 61.25C210.388 60.4167 210.232 59.7005 210.102 59.1016H209.828C209.724 59.7005 209.581 60.4167 209.398 61.25C209.216 62.0573 208.995 62.9427 208.734 63.9062C208.5 64.8698 208.24 65.8854 207.953 66.9531C207.667 67.9948 207.341 69.0495 206.977 70.1172L199.008 94.9219H191.703L179.906 52.1094H186.625L192.797 75.7422C193.214 77.3047 193.604 78.8542 193.969 80.3906C194.359 81.901 194.685 83.3333 194.945 84.6875C195.232 86.0156 195.44 87.1745 195.57 88.1641H195.883C196.039 87.513 196.208 86.7318 196.391 85.8203C196.599 84.9089 196.82 83.9453 197.055 82.9297C197.315 81.888 197.589 80.8594 197.875 79.8438C198.161 78.8021 198.448 77.8255 198.734 76.9141L206.625 52.1094H213.617L221.234 76.875C221.625 78.125 222.003 79.4271 222.367 80.7812C222.758 82.1354 223.109 83.4505 223.422 84.7266C223.734 85.9766 223.956 87.0964 224.086 88.0859H224.398C224.503 87.2005 224.698 86.1068 224.984 84.8047C225.271 83.5026 225.596 82.0703 225.961 80.5078C226.352 78.9453 226.755 77.3568 227.172 75.7422L233.422 52.1094H240.023L228.188 94.9219H220.648ZM285.15 73.5156C285.15 77.0312 284.694 80.1693 283.783 82.9297C282.871 85.6901 281.556 88.0208 279.838 89.9219C278.119 91.8229 276.035 93.2812 273.588 94.2969C271.166 95.2865 268.418 95.7812 265.345 95.7812C262.481 95.7812 259.851 95.2865 257.455 94.2969C255.085 93.2812 253.028 91.8229 251.283 89.9219C249.564 88.0208 248.223 85.6901 247.259 82.9297C246.322 80.1693 245.853 77.0312 245.853 73.5156C245.853 68.8281 246.647 64.8438 248.236 61.5625C249.824 58.2552 252.09 55.7422 255.033 54.0234C258.002 52.2786 261.53 51.4062 265.619 51.4062C269.525 51.4062 272.936 52.2786 275.853 54.0234C278.796 55.7682 281.074 58.2943 282.689 61.6016C284.33 64.8828 285.15 68.8542 285.15 73.5156ZM252.572 73.5156C252.572 76.9531 253.028 79.9349 253.939 82.4609C254.851 84.987 256.257 86.9401 258.158 88.3203C260.059 89.7005 262.507 90.3906 265.502 90.3906C268.47 90.3906 270.905 89.7005 272.806 88.3203C274.733 86.9401 276.153 84.987 277.064 82.4609C277.976 79.9349 278.431 76.9531 278.431 73.5156C278.431 70.1042 277.976 67.1615 277.064 64.6875C276.153 62.1875 274.746 60.2604 272.845 58.9062C270.944 57.5521 268.483 56.875 265.463 56.875C261.009 56.875 257.741 58.3464 255.658 61.2891C253.601 64.2318 252.572 68.3073 252.572 73.5156ZM316.214 51.4062C317.073 51.4062 317.972 51.4583 318.909 51.5625C319.847 51.6406 320.68 51.7578 321.409 51.9141L320.589 57.9297C319.886 57.7474 319.105 57.6042 318.245 57.5C317.386 57.3958 316.579 57.3438 315.823 57.3438C314.105 57.3438 312.477 57.6953 310.941 58.3984C309.43 59.0755 308.102 60.0651 306.956 61.3672C305.81 62.6432 304.912 64.1927 304.261 66.0156C303.61 67.8125 303.284 69.8177 303.284 72.0312V95H296.761V52.1875H302.152L302.855 60.0781H303.128C304.014 58.4896 305.081 57.0443 306.331 55.7422C307.581 54.4141 309.027 53.3594 310.667 52.5781C312.334 51.7969 314.183 51.4062 316.214 51.4062Z" fill="black"/>
<path d="M340.091 73.0859L325.286 52.1875H332.708L343.997 68.6719L355.247 52.1875H362.591L347.786 73.0859L363.411 95H355.989L343.997 77.5391L331.927 95H324.583L340.091 73.0859Z" fill="#F04137"/>
<path d="M0 19L-4.15258e-07 9.5C-6.44599e-07 4.2533 4.25329 1.72143e-06 9.5 1.49209e-06L54 -4.53066e-07L54 19L0 19Z" fill="black"/>
<rect y="57" width="19" height="46" transform="rotate(-90 0 57)" fill="black"/>
<path d="M9.5 95C4.2533 95 -1.85917e-07 90.7467 -4.15258e-07 85.5L-8.30516e-07 76L19 76L19 95L9.5 95Z" fill="black"/>
<path d="M57 47.5C57 52.7467 52.7467 57 47.5 57L38 57L38 1.66103e-06L57 0L57 47.5Z" fill="black"/>
</svg>
